Coordinates
version=1
nRows=49
nColumns=12
inDegrees=yes

Units are S.I. units (second, meters, Newtons, ...)
Angles are in degrees

endheader
time	SC_y	SC_z	SC_x	AC_y	AC_z	AC_x	GH_y	GH_z	GH_yy	EL_x	PS_y
       0.0              -49.31          8.104          81.52          57.02         -18.81         -18.34         -136.8          41.06          55.53          13.38          134.6
   0.03562              -49.31          8.107          81.52          57.01          -18.8         -18.33         -136.8          41.05           55.5          13.38          134.6
   0.07123               -49.3          8.111          81.52          57.01          -18.8         -18.33         -136.8          41.05          55.48          13.37          134.6
    0.1068               -49.3          8.114          81.52          57.01          -18.8         -18.32         -136.8          41.04          55.45          13.37          134.6
    0.1425              -49.29          8.118          81.52           57.0          -18.8         -18.32         -136.8          41.04          55.42          13.37          134.6
    0.1781              -49.29          8.123          81.52           57.0          -18.8         -18.31         -136.8          41.03          55.39          13.37          134.6
    0.2137              -49.28          8.127          81.52          56.99          -18.8         -18.31         -136.8          41.02          55.36          13.37          134.6
    0.2493              -49.28          8.132          81.52          56.99          -18.8          -18.3         -136.8          41.02          55.32          13.37          134.6
    0.2849              -49.27          8.138          81.52          56.98         -18.79          -18.3         -136.8          41.01          55.29          13.37          134.6
    0.3205              -49.26          8.143          81.52          56.98         -18.79         -18.29         -136.8           41.0          55.25          13.36          134.6
    0.3562              -49.26          8.149          81.52          56.97         -18.79         -18.28         -136.8           41.0           55.2          13.36          134.6
    0.3918              -49.25          8.156          81.51          56.96         -18.79         -18.27         -136.8          40.99          55.16          13.36          134.6
    0.4274              -49.24          8.163          81.51          56.96         -18.79         -18.27         -136.8          40.98          55.11          13.36          134.7
     0.463              -49.23           8.17          81.51          56.95         -18.78         -18.26         -136.8          40.97          55.06          13.35          134.7
    0.4986              -49.22          8.179          81.51          56.94         -18.78         -18.25         -136.8          40.96           55.0          13.35          134.7
    0.5342              -49.21          8.187          81.51          56.93         -18.78         -18.24         -136.8          40.95          54.93          13.35          134.7
    0.5699               -49.2          8.197          81.51          56.92         -18.77         -18.22         -136.8          40.93          54.87          13.34          134.7
    0.6055              -49.18          8.208           81.5          56.91         -18.77         -18.21         -136.8          40.92          54.79          13.34          134.7
    0.6411              -49.17          8.219           81.5           56.9         -18.77          -18.2         -136.8           40.9          54.71          13.34          134.7
    0.6767              -49.15          8.232           81.5          56.88         -18.76         -18.18         -136.8          40.89          54.62          13.33          134.7
    0.7123              -49.13          8.246           81.5          56.87         -18.76         -18.17         -136.8          40.87          54.52          13.33          134.7
    0.7479              -49.11          8.261           81.5          56.85         -18.75         -18.15         -136.7          40.85          54.42          13.32          134.7
    0.7836              -49.09          8.278          81.49          56.84         -18.75         -18.13         -136.7          40.83           54.3          13.32          134.7
    0.8192              -49.07          8.296          81.49          56.82         -18.74         -18.11         -136.7           40.8          54.17          13.31          134.8
    0.8548              -49.04          8.317          81.49           56.8         -18.73         -18.08         -136.7          40.77          54.02           13.3          134.8
    0.8904              -49.01           8.34          81.48          56.77         -18.73         -18.05         -136.7          40.74          53.86           13.3          134.8
     0.926              -48.98          8.366          81.48          56.75         -18.72         -18.02         -136.7          40.71          53.67          13.29          134.8
    0.9616              -48.95          8.395          81.47          56.72         -18.71         -17.99         -136.7          40.67          53.47          13.28          134.8
    0.9973               -48.9          8.428          81.46          56.68          -18.7         -17.95         -136.6          40.63          53.24          13.26          134.9
     1.033              -48.86          8.465          81.46          56.64         -18.69          -17.9         -136.6          40.58          52.97          13.25          134.9
     1.068               -48.8          8.508          81.45           56.6         -18.67         -17.85         -136.6          40.52          52.67          13.24          134.9
     1.104              -48.74          8.557          81.44          56.55         -18.65         -17.79         -136.6          40.46          52.32          13.22          135.0
      1.14              -48.67          8.613          81.43          56.49         -18.64         -17.73         -136.5          40.38          51.92           13.2          135.0
     1.175              -48.59          8.679          81.42          56.42         -18.61         -17.65         -136.5           40.3          51.46          13.18          135.1
     1.211              -48.49          8.756           81.4          56.34         -18.59         -17.56         -136.4          40.19          50.92          13.15          135.1
     1.247              -48.38          8.846          81.39          56.25         -18.56         -17.45         -136.4          40.07          50.28          13.12          135.2
     1.282              -48.24          8.954          81.37          56.14         -18.52         -17.32         -136.3          39.93          49.52          13.08          135.3
     1.318              -48.08          9.083          81.35           56.0         -18.48         -17.16         -136.2          39.76          48.61          13.04          135.4
     1.353              -47.88          9.239          81.32          55.84         -18.43         -16.98         -136.1          39.56           47.5          12.98          135.5
     1.389              -47.64           9.43          81.28          55.64         -18.36         -16.75         -136.0           39.3          46.16          12.92          135.6
     1.425              -47.34          9.665          81.24           55.4         -18.29         -16.47         -135.9          38.99           44.5          12.83          135.8
      1.46              -46.97          9.959          81.19           55.1         -18.19         -16.12         -135.7           38.6          42.42          12.73          136.1
     1.496               -46.5          10.33          81.12          54.71         -18.06         -15.67         -135.4          38.12          39.81           12.6          136.4
     1.532              -45.91           10.8          81.03          54.23         -17.91         -15.11         -135.1          37.49          36.49          12.44          136.7
     1.567              -45.15           11.4          80.92          53.61         -17.71         -14.39         -134.8           36.7          32.24          12.23          137.2
     1.603              -44.18          12.17          80.78          52.81         -17.45         -13.47         -134.3          35.68          26.79          11.96          137.8
     1.638              -42.93          13.16           80.6          51.79         -17.12         -12.29         -133.6          34.38          19.83          11.62          138.6
     1.674              -41.36           14.4          80.38           50.5         -16.71         -10.81         -132.8          32.74          11.07          11.19          139.5
      1.71              -39.46          15.91           80.1          48.94         -16.21         -9.001         -131.9          30.74         0.3961          10.66          140.7
